<?xml version="1.0" encoding="UTF-8"?>
<svg id="Layer_1" data-name="Layer 1" xmlns="http://www.w3.org/2000/svg" viewBox="0 0 249.7 225.9">
  <defs>
    <style>
      .cls-1 {
        fill: #f7f7f7;
      }

      .cls-2 {
        fill: #806f62;
      }

      .cls-3 {
        fill: #a08c7b;
      }

      .cls-4 {
        fill: #baa78f;
      }

      .cls-5 {
        fill: #b2603b;
      }

      .cls-6 {
        fill: #af9b87;
      }

      .cls-7 {
        fill: #dd3123;
      }

      .cls-8 {
        fill: #894121;
      }

      .cls-9 {
        fill: #7b8889;
      }

      .cls-10 {
        stroke: #9e512e;
      }

      .cls-10, .cls-11, .cls-12, .cls-13, .cls-14, .cls-15, .cls-16, .cls-17, .cls-18, .cls-19, .cls-20, .cls-21, .cls-22, .cls-23, .cls-24 {
        fill: none;
        stroke-width: 2px;
      }

      .cls-11 {
        stroke: #b9c0c0;
      }

      .cls-12 {
        stroke: #a1a8a8;
      }

      .cls-13 {
        stroke: #7c7c7c;
      }

      .cls-14 {
        stroke: #452111;
      }

      .cls-15 {
        stroke: #403831;
      }

      .cls-16 {
        stroke: #3e4445;
      }

      .cls-17 {
        stroke: #59301e;
      }

      .cls-18 {
        stroke: #584e44;
      }

      .cls-19 {
        stroke: #646464;
      }

      .cls-20 {
        stroke: #6f1912;
      }

      .cls-21 {
        stroke: #50463e;
      }

      .cls-22 {
        stroke: #5d5448;
      }

      .cls-23 {
        stroke: #ad9a85;
      }

      .cls-24 {
        stroke: #dfdfdf;
      }
    </style>
  </defs>
  <g>
    <path class="cls-20" d="m206.45,138.27c-1.55-26.69-20.74-50.71-45.07-60.69-13.48-5.54-28.56-6.56-42.95-3.98-30.96,5.54-53.68,31.68-58.82,62.08-.08.46.23.89.69.97.04,0,.08.01.12.01l40.31.81c.41.01.7-.16.89-.52,2.09-4.02,3.67-8.68,6.56-11.86,6.8-7.47,15.13-11.28,25-11.45,16.43-.27,26.22,10.45,32.24,24.5.25.57.85.91,1.48.83,2.37-.32,4.88-.44,7.53-.36,9.67.29,19.89.64,30.66,1.05.72.03,1.33-.53,1.36-1.26,0-.04,0-.09,0-.13" vector-effect="non-scaling-stroke"/>
    <path class="cls-13" d="m157.88,146.08c0-13.64-11.06-24.7-24.7-24.7s-24.7,11.06-24.7,24.7,11.06,24.7,24.7,24.7,24.7-11.06,24.7-24.7" vector-effect="non-scaling-stroke"/>
    <path class="cls-19" d="m143.41,219.32c11.64-1.31,22.29-5.4,31.95-12.27" vector-effect="non-scaling-stroke"/>
    <path class="cls-16" d="m175.36,207.05c6.73-3.75,12.2-8.98,16.42-15.69" vector-effect="non-scaling-stroke"/>
    <path class="cls-19" d="m191.78,191.36c7.84-10.81,13.08-22.22,14.36-35.68.03-.25-.09-.38-.34-.38l-15.4-.06" vector-effect="non-scaling-stroke"/>
    <path class="cls-13" d="m190.4,155.24l-24.86-.7c-.34-.01-.57.14-.68.47-11,31.41-53.35,31.81-63-.7-.1-.33-.32-.56-.65-.67-2.12-.71-4.94-.02-6.42-.05-11.71-.24-23.37-.65-35-1.23-.36-.01-.52.16-.48.52,1.93,18.31,10.05,34.49,23.33,47.11,16.44,15.62,36.7,22.06,60.77,19.33" vector-effect="non-scaling-stroke"/>
    <path class="cls-24" d="m190.4,155.24c.18.99.06,1.67-.35,2.04-.29.25-.3.52-.03.79l.33.32c.24.24.34.53.29.86-2.11,15.75-8.52,29.4-19.23,40.94-.51.55-1.28,1.18-2.31,1.87-2.11,1.42-3.25,3.26-5.59,4.39-3.62,1.76-5.96,3.79-9.03,5.45-3.05,1.66-4.5,3.35-6.47,5.84-.21.26-.49.38-.82.37-1.47-.05-2.73.36-3.78,1.21" vector-effect="non-scaling-stroke"/>
    <path class="cls-12" d="m191.78,191.36c-2.51,1.83-4.79,3.75-6.82,5.77-3.26,3.24-6.46,6.55-9.6,9.92" vector-effect="non-scaling-stroke"/>
    <path class="cls-11" d="m149.38,146.07c0-8.94-7.25-16.19-16.19-16.19h0c-8.94,0-16.19,7.25-16.19,16.19s7.25,16.19,16.19,16.19,16.19-7.25,16.19-16.19h0" vector-effect="non-scaling-stroke"/>
  </g>
  <path d="m159.12,69.24c27.36,9.91,48.69,33.23,53.49,61.73.75,4.43,1.94,8.82,1.85,13.23-.24,10.65-1.18,21.73-5.27,31.44-11.73,27.88-37.58,47.45-67.75,49.96-3.75.31-8.22.39-13.39.22-5.86-.18-11.01-1.56-16.73-2.97-27.25-6.69-48.86-29.88-56.32-56.55-11.86-42.44,15.49-87.91,58.19-99.22,8.81-2.34,18.8-2.27,27.82-1.59,6.51.49,12.55,1.74,18.11,3.75Zm47.33,69.03c-1.55-26.69-20.74-50.71-45.07-60.69-13.48-5.54-28.56-6.56-42.95-3.98-30.96,5.54-53.68,31.68-58.82,62.08-.08.46.23.89.69.97.04,0,.08.01.12.01l40.31.81c.41.01.7-.16.89-.52,2.09-4.02,3.67-8.68,6.56-11.86,6.8-7.47,15.13-11.28,25-11.45,16.43-.27,26.22,10.45,32.24,24.5.25.57.85.91,1.48.83,2.37-.32,4.88-.44,7.53-.36,9.67.29,19.89.64,30.66,1.05.72.03,1.33-.53,1.36-1.26,0-.04,0-.09,0-.13Zm-48.57,7.81c0-13.64-11.06-24.7-24.7-24.7s-24.7,11.06-24.7,24.7,11.06,24.7,24.7,24.7,24.7-11.06,24.7-24.7Zm-14.47,73.24c11.64-1.31,22.29-5.4,31.95-12.27,6.73-3.75,12.2-8.98,16.42-15.69,7.84-10.81,13.08-22.22,14.36-35.68.03-.25-.09-.38-.34-.38l-15.4-.06-24.86-.7c-.34-.01-.57.14-.68.47-11,31.41-53.35,31.81-63-.7-.1-.33-.32-.56-.65-.67-2.12-.71-4.94-.02-6.42-.05-11.71-.24-23.37-.65-35-1.23-.36-.01-.52.16-.48.52,1.93,18.31,10.05,34.49,23.33,47.11,16.44,15.62,36.7,22.06,60.77,19.33Z"/>
  <path class="cls-7" d="m161.38,77.58c24.33,9.98,43.52,34,45.07,60.69.04.72-.5,1.34-1.23,1.39-.04,0-.09,0-.13,0-10.77-.41-20.99-.76-30.66-1.05-2.65-.08-5.16.04-7.53.36-.63.08-1.23-.26-1.48-.83-6.02-14.05-15.81-24.77-32.24-24.5-9.87.17-18.2,3.98-25,11.45-2.89,3.18-4.47,7.84-6.56,11.86-.19.36-.48.53-.89.52l-40.31-.81c-.46-.01-.83-.39-.82-.86,0-.04,0-.08.01-.12,5.14-30.4,27.86-56.54,58.82-62.08,14.39-2.58,29.47-1.56,42.95,3.98Z"/>
  <path class="cls-1" d="m157.88,146.08c0,13.64-11.06,24.7-24.7,24.7s-24.7-11.06-24.7-24.7,11.06-24.7,24.7-24.7,24.7,11.06,24.7,24.7Zm-8.5,0c0-8.94-7.25-16.19-16.19-16.19h0c-8.94,0-16.19,7.25-16.19,16.19s7.25,16.19,16.19,16.19,16.19-7.25,16.19-16.19h0Z"/>
  <circle class="cls-9" cx="133.19" cy="146.07" r="16.19"/>
  <path class="cls-1" d="m205.99,155.34c0,5.97-.88,14.6-10.26,30.15-3.05,5.23-6.24,10.47-13.72,17.04-7.7,6.76-15.1,9.92-19.03,11.57-7.7,3.22-14.6,4.59-19.57,5.22-24.07,2.73-44.33-3.71-60.77-19.33-13.28-12.62-21.4-28.8-23.33-47.11-.04-.36.12-.53.48-.52,11.63.58,23.29.99,35,1.23,1.48.03,4.3-.66,6.42.05.33.11.55.34.65.67,9.65,32.51,52,32.11,63,.7.11-.33.34-.48.68-.47,13.48.27,26.97.53,40.45.8Z"/>
  <g>
    <path class="cls-14" d="m209.08,114.56c-7.96,1.21-15.7,3.34-23.2,6.39" vector-effect="non-scaling-stroke"/>
    <path class="cls-14" d="m60.07,129.69c-2.86-1.11-5.74-1.31-8.64-.58" vector-effect="non-scaling-stroke"/>
    <path class="cls-18" d="m118.42,25.44c-7.3,20.84-28.85,40.2-49.65,18.35-.38-.4-.65-.34-.81.19l-4.25,14.11c-.14.48.1.99.56,1.19,14.97,6.55,33.01,9.27,49.27,10.72,22.08,1.97,43.56-1.31,64.43-9.84,4.57-1.86,8.55-4.39,11.97-7.57.21-.2.3-.49.25-.77-.73-3.79-2.63-11.96-5.6-14.56-.29-.25-.49-.2-.61.17-2.85,8.58-8.16,13.79-15.94,15.62-25.54,6.01-42.76-25.6-33.19-46.07.13-.28.01-.61-.27-.74-.02-.01-.05-.02-.07-.03-6.64-2.07-13.04-4.13-19.9-1.7-.42.15-.64.6-.49,1.01.04.12.12.23.21.32,5.92,5.34,6.72,12.06,4.08,19.59" vector-effect="non-scaling-stroke"/>
    <path class="cls-15" d="m74.02,46.25c5.98,4.27,11.03,6.1,18.51,4.58,11.47-2.34,17.41-11.8,22.94-21.47,3.32-5.8,3.73-11.65,1.24-17.55-1.45-3.45-4.77-6.97-8.9-4.3-11.05,7.13-26.16,17.46-34.97,28.53-3.26,4.1-3.16,7.14,1.18,10.22" vector-effect="non-scaling-stroke"/>
    <path class="cls-15" d="m137.19,8.07c-7.9,13.19-.19,30.97,11.26,39.11,10.53,7.49,25.56,6.2,32.36-5.61,2.95-5.12.44-10.37-3.89-13.8-11.56-9.13-24.44-15.83-38.65-20.1-.41-.12-.85.05-1.07.41" vector-effect="non-scaling-stroke"/>
    <path class="cls-14" d="m174.7,90.82c7.65-2.73,14.55-6.71,20.71-11.95.59-.5.85-1.28.67-2.02l-4.84-20.28c-.23-.99-.8-1.22-1.69-.7-5.84,3.41-12.21,6.42-19.12,9.04" vector-effect="non-scaling-stroke"/>
    <path class="cls-17" d="m170.44,64.91c-34.16,11.77-71.55,7.91-105.77-3.38-.39-.13-.81.08-.94.46,0,.03-.02.05-.02.08-1.96,8.98-3.02,18.06-3.16,27.25-.01.43.24.83.64,1,14.99,6.7,29.7,8.9,46.41,9.52,22.05.82,46.45-1.17,67.09-9.01" vector-effect="non-scaling-stroke"/>
    <path class="cls-10" d="m170.44,64.91c.87,7.69,2.49,16.05,2.6,23.72.02,1.28.57,2.02,1.66,2.2" vector-effect="non-scaling-stroke"/>
    <path class="cls-21" d="m164.79,114.48c22.53-2.88,42.99-7.55,62.48-18.99,7.32-4.29,14.01-11.91,12.91-20.42-.19-1.52-1.3-3.44-2.49-4.14-13.04-7.55-27.11-11.92-42.21-13.12-.32-.02-.46.12-.42.43.73,6,1.76,11.93,3.09,17.79,2.11,9.3-29.03,18.92-35.68,20.4" vector-effect="non-scaling-stroke"/>
    <path class="cls-22" d="m162.46,96.45c-32.94,7.75-71.7,8.04-103.58-4.6-.69-.27-1.17-.89-1.25-1.62-.85-7.22.77-15.21,1.63-22.54.04-.35-.21-.66-.56-.7-.1-.01-.19,0-.28.03-16.88,5.8-32.39,14.1-46.55,24.91-3.83,2.92-4.8,4.8-1.81,9.22,11.18,16.52,39.52,18.85,57.56,19.11,32.39.47,65.1-1.11,97.16-5.79" vector-effect="non-scaling-stroke"/>
    <path class="cls-23" d="m162.46,96.45c-.32.51-.13.9.55,1.16.2.08.3.3.22.5-.02.04-.04.07-.06.11l-.57.68c-.17.2-.15.49.05.66.07.06.16.1.26.11l2.46.3c.39.05.51.25.34.6-1.38,3.09-2.43,5.08-3.13,5.97-1.74,2.22-1.83,4.46-.27,6.73.19.28.48.38.85.29.28-.07.29-.03.03.12-.09.05-.16.1-.23.15-.13.09-.12.14.04.15l2.05.08c.27.01.29.09.06.24l-.3.18" vector-effect="non-scaling-stroke"/>
    <path class="cls-15" d="m172.16,115.64c-28.16,4.5-57.67,5.99-86.55,6.41-22.19.31-68.95,1.17-79.37-24.27-.08-.18-.28-.26-.46-.19-.07.03-.12.07-.16.13-5.12,7.67.97,16.65,7.88,20.37,10.85,5.85,27.73,8.3,40.64,9.21,19.83,1.39,39.67,1.73,59.53,1.02,17.76-.63,36.4-1.63,53.04-4.45,9.91-1.68,22.22-5.75,31.08-8.06,14.67-3.82,42.07-9.32,47.3-26.13,1.44-4.63.78-8.85-2.01-12.66-.11-.15-.33-.18-.48-.07-.07.05-.12.13-.13.21-2.36,12.87-10.36,18.07-22.48,24.13-15.04,7.51-31.8,11.8-47.85,14.36" vector-effect="non-scaling-stroke"/>
  </g>
  <path d="m240.48,102.36c-4.82,4.93-10.89,7.01-22.82,10.98-4.63,1.54-9.41,2.93-27.25,7.18-10.69,2.55-16.03,3.83-19.71,4.6-19.41,4.1-35.09,4.74-56.84,5.63-19.19.79-33.33.4-42.28.15-12.93-.37-19.39-.56-25.75-1.51-10.36-1.54-39.78-6.81-44.88-20.44-3.91-10.44,4.99-17.1,12.34-22.08,14.31-9.69,29.83-16.78,45.51-23.82.44-.2.77-.59.88-1.07,2.38-10.33,4.06-20.61,11.31-28.94,1.47-1.69,5.43-5.27,11.89-10.74,8.36-7.09,17.03-13.43,26.01-19.05,10.36-6.48,22.12-1.9,32.63,1.88,23.14,8.34,48.63,21.05,52.55,47.8.1.72.68,1.28,1.41,1.38,34.83,4.59,50.25,17.59,53.82,29.2,2.29,7.47-6.2,16.15-8.84,18.85ZM118.42,25.44c-7.3,20.84-28.85,40.2-49.65,18.35-.38-.4-.65-.34-.81.19l-4.25,14.11c-.14.48.1.99.56,1.19,14.97,6.55,33.01,9.27,49.27,10.72,22.08,1.97,43.56-1.31,64.43-9.84,4.57-1.86,8.55-4.39,11.97-7.57.21-.2.3-.49.25-.77-.73-3.79-2.63-11.96-5.6-14.56-.29-.25-.49-.2-.61.17-2.85,8.58-8.16,13.79-15.94,15.62-25.54,6.01-42.76-25.6-33.19-46.07.13-.28.01-.61-.27-.74-.02-.01-.05-.02-.07-.03-6.64-2.07-13.04-4.13-19.9-1.7-.42.15-.64.6-.49,1.01.04.12.12.23.21.32,5.92,5.34,6.72,12.06,4.08,19.59Zm-44.4,20.81c5.98,4.27,11.03,6.1,18.51,4.58,11.47-2.34,17.41-11.8,22.94-21.47,3.32-5.8,3.73-11.65,1.24-17.55-1.45-3.45-4.77-6.97-8.9-4.3-11.05,7.13-26.16,17.46-34.97,28.53-3.26,4.1-3.16,7.14,1.18,10.22Zm63.17-38.18c-7.9,13.19-.19,30.97,11.26,39.11,10.53,7.49,25.56,6.2,32.36-5.61,2.95-5.12.44-10.37-3.89-13.8-11.56-9.13-24.44-15.83-38.65-20.1-.41-.12-.85.05-1.07.41Zm37.51,82.76c7.65-2.73,14.55-6.71,20.71-11.95.59-.5.85-1.28.67-2.02l-4.84-20.28c-.23-.99-.8-1.22-1.69-.7-5.84,3.41-12.21,6.42-19.12,9.04-34.16,11.77-71.55,7.91-105.77-3.38-.39-.13-.81.08-.94.46,0,.03-.02.05-.02.08-1.96,8.98-3.02,18.06-3.16,27.25-.01.43.24.83.64,1,14.99,6.7,29.7,8.9,46.41,9.52,22.05.82,46.45-1.17,67.09-9.01Zm-9.92,23.66c22.53-2.88,42.99-7.55,62.48-18.99,7.32-4.29,14.01-11.91,12.91-20.42-.19-1.52-1.3-3.44-2.49-4.14-13.04-7.55-27.11-11.92-42.21-13.12-.32-.02-.46.12-.42.43.73,6,1.76,11.93,3.09,17.79,2.11,9.3-29.03,18.92-35.68,20.4-32.94,7.75-71.7,8.04-103.58-4.6-.69-.27-1.17-.89-1.25-1.62-.85-7.22.77-15.21,1.63-22.54.04-.35-.21-.66-.56-.7-.1-.01-.19,0-.28.03-16.88,5.8-32.39,14.1-46.55,24.91-3.83,2.92-4.8,4.8-1.81,9.22,11.18,16.52,39.52,18.85,57.56,19.11,32.39.47,65.1-1.11,97.16-5.79Zm7.38,1.15c-28.16,4.5-57.67,5.99-86.55,6.41-22.19.31-68.95,1.17-79.37-24.27-.08-.18-.28-.26-.46-.19-.07.03-.12.07-.16.13-5.12,7.67.97,16.65,7.88,20.37,10.85,5.85,27.73,8.3,40.64,9.21,19.83,1.39,39.67,1.73,59.53,1.02,17.76-.63,36.4-1.63,53.04-4.45,9.91-1.68,22.22-5.75,31.08-8.06,14.67-3.82,42.07-9.32,47.3-26.13,1.44-4.63.78-8.85-2.01-12.66-.11-.15-.33-.18-.48-.07-.07.05-.12.13-.13.21-2.36,12.87-10.36,18.07-22.48,24.13-15.04,7.51-31.8,11.8-47.85,14.36Z"/>
  <path class="cls-6" d="m68.77,43.8c20.79,21.85,42.35,2.48,49.65-18.35,2.64-7.54,1.84-14.26-4.08-19.59-.33-.3-.35-.8-.04-1.12.09-.09.2-.17.32-.21,6.85-2.43,13.25-.37,19.9,1.7.3.09.47.41.37.7,0,.02-.02.05-.03.07-9.57,20.47,7.65,52.08,33.19,46.07,7.78-1.83,13.09-7.04,15.94-15.62.12-.37.32-.42.61-.17,2.96,2.6,4.86,10.77,5.6,14.56.05.29-.04.58-.25.77-3.41,3.18-7.4,5.7-11.97,7.57-20.87,8.52-42.34,11.8-64.43,9.84-16.26-1.45-34.3-4.17-49.27-10.72-.46-.2-.7-.71-.56-1.19l4.25-14.11c.16-.53.43-.59.81-.19Z"/>
  <path class="cls-2" d="m74.02,46.25c-4.33-3.08-4.43-6.12-1.18-10.22,8.81-11.07,23.92-21.4,34.97-28.53,4.12-2.67,7.44.85,8.9,4.3,2.49,5.9,2.07,11.75-1.24,17.55-5.53,9.67-11.47,19.13-22.94,21.47-7.47,1.52-12.52-.31-18.51-4.58Z"/>
  <path class="cls-2" d="m148.45,47.17c-11.45-8.14-19.16-25.92-11.26-39.11.22-.36.66-.53,1.07-.41,14.21,4.27,27.1,10.97,38.65,20.1,4.34,3.43,6.84,8.68,3.89,13.8-6.8,11.8-21.82,13.1-32.36,5.61Z"/>
  <path class="cls-5" d="m170.44,64.91c.87,7.69,2.49,16.05,2.6,23.72.02,1.28.57,2.02,1.66,2.2-20.64,7.84-45.05,9.83-67.09,9.01-16.72-.61-31.42-2.81-46.41-9.52-.4-.17-.65-.57-.64-1,.14-9.18,1.2-18.26,3.16-27.25.09-.39.48-.65.88-.56.03,0,.05.01.08.02,34.22,11.29,71.61,15.15,105.77,3.38Z"/>
  <path class="cls-4" d="m162.46,96.45c-.32.51-.13.9.55,1.16.2.08.3.3.22.5-.02.04-.04.07-.06.11l-.57.68c-.17.2-.15.49.05.66.07.06.16.1.26.11l2.46.3c.39.05.51.25.34.6-1.38,3.09-2.43,5.08-3.13,5.97-1.74,2.22-1.83,4.46-.27,6.73.19.28.48.38.85.29.28-.07.29-.03.03.12-.09.05-.16.1-.23.15-.13.09-.12.14.04.15l2.05.08c.27.01.29.09.06.24l-.3.18c-32.06,4.67-64.77,6.26-97.16,5.79-18.04-.26-46.39-2.59-57.56-19.11-2.99-4.42-2.02-6.3,1.81-9.22,14.16-10.81,29.67-19.11,46.55-24.91.33-.12.69.06.81.38.03.09.04.19.03.28-.86,7.32-2.48,15.31-1.63,22.54.09.72.57,1.34,1.25,1.62,31.88,12.64,70.64,12.35,103.58,4.6Z"/>
  <path class="cls-8" d="m174.7,90.82c-1.09-.18-1.64-.91-1.66-2.2-.11-7.66-1.74-16.02-2.6-23.72,6.9-2.61,13.28-5.62,19.12-9.04.89-.52,1.45-.29,1.69.7l4.84,20.28c.18.74-.08,1.52-.67,2.02-6.16,5.24-13.06,9.22-20.71,11.95Z"/>
  <path class="cls-3" d="m164.79,114.48l.3-.18c.23-.15.22-.22-.06-.24l-2.05-.08c-.16,0-.17-.06-.04-.15.07-.05.14-.11.23-.15.26-.15.25-.2-.03-.12-.37.09-.66,0-.85-.29-1.56-2.27-1.47-4.51.27-6.73.71-.89,1.75-2.88,3.13-5.97.16-.35.05-.55-.34-.6l-2.46-.3c-.26-.03-.45-.26-.42-.52.01-.09.05-.18.11-.25l.57-.68c.14-.16.12-.4-.05-.54-.03-.03-.07-.05-.11-.06-.68-.27-.87-.65-.55-1.16,6.66-1.48,37.79-11.1,35.68-20.4-1.33-5.87-2.36-11.8-3.09-17.79-.03-.31.11-.46.42-.43,15.1,1.19,29.17,5.57,42.21,13.12,1.19.7,2.3,2.62,2.49,4.14,1.09,8.5-5.59,16.12-12.91,20.42-19.49,11.43-39.95,16.1-62.48,18.99Z"/>
  <path class="cls-2" d="m85.62,122.05c28.87-.41,58.39-1.91,86.55-6.41,16.05-2.57,32.81-6.85,47.85-14.36,12.12-6.06,20.12-11.26,22.48-24.13.03-.18.21-.31.4-.27.09.01.16.06.21.13,2.78,3.81,3.45,8.03,2.01,12.66-5.23,16.8-32.63,22.3-47.3,26.13-8.86,2.32-21.16,6.38-31.08,8.06-16.64,2.82-35.28,3.82-53.04,4.45-19.86.71-39.7.37-59.53-1.02-12.91-.9-29.8-3.36-40.64-9.21-6.91-3.72-13-12.69-7.88-20.37.1-.16.32-.2.48-.1.06.04.11.09.14.16,10.42,25.44,57.18,24.58,79.37,24.27Z"/>
</svg>